<mxfile host="65bd71144e">
    <diagram id="QagKjCYaLeBmGOKPNQZ3" name="Page-1">
        <mxGraphModel dx="1020" dy="4336" grid="1" gridSize="10" guides="1" tooltips="1" connect="1" arrows="1" fold="1" page="1" pageScale="1" pageWidth="827" pageHeight="1169" math="0" shadow="0">
            <root>
                <mxCell id="0"/>
                <mxCell id="1" parent="0"/>
                <mxCell id="18" style="edgeStyle=orthogonalEdgeStyle;rounded=0;html=1;exitX=0.5;exitY=1;exitDx=0;exitDy=0;exitPerimeter=0;" edge="1" parent="1" source="2" target="3">
                    <mxGeometry relative="1" as="geometry"/>
                </mxCell>
                <mxCell id="2" value="Start" style="strokeWidth=2;html=1;shape=mxgraph.flowchart.start_1;whiteSpace=wrap;" vertex="1" parent="1">
                    <mxGeometry x="364" y="-3480" width="100" height="60" as="geometry"/>
                </mxCell>
                <mxCell id="21" style="edgeStyle=orthogonalEdgeStyle;rounded=0;html=1;exitX=0.5;exitY=1;exitDx=0;exitDy=0;entryX=0.5;entryY=0;entryDx=0;entryDy=0;entryPerimeter=0;" edge="1" parent="1" source="3" target="20">
                    <mxGeometry relative="1" as="geometry"/>
                </mxCell>
                <mxCell id="3" value="Enter the age" style="shape=parallelogram;html=1;strokeWidth=2;perimeter=parallelogramPerimeter;whiteSpace=wrap;rounded=1;arcSize=12;size=0.23;" vertex="1" parent="1">
                    <mxGeometry x="349" y="-3360" width="130" height="50" as="geometry"/>
                </mxCell>
                <mxCell id="24" style="edgeStyle=orthogonalEdgeStyle;rounded=0;html=1;exitX=0.5;exitY=1;exitDx=0;exitDy=0;exitPerimeter=0;" edge="1" parent="1" source="5" target="7">
                    <mxGeometry relative="1" as="geometry"/>
                </mxCell>
                <mxCell id="25" style="edgeStyle=orthogonalEdgeStyle;rounded=0;html=1;exitX=1;exitY=0.5;exitDx=0;exitDy=0;exitPerimeter=0;" edge="1" parent="1" source="5" target="6">
                    <mxGeometry relative="1" as="geometry"/>
                </mxCell>
                <mxCell id="5" value="if&lt;br&gt;age&amp;gt;=40&lt;br&gt;age&amp;lt;=25&lt;br&gt;&amp;amp;&amp;amp;&lt;br&gt;age&amp;gt;=25&lt;br&gt;age&amp;lt;=40&lt;br&gt;" style="strokeWidth=2;html=1;shape=mxgraph.flowchart.decision;whiteSpace=wrap;" vertex="1" parent="1">
                    <mxGeometry x="326" y="-2910" width="176" height="190" as="geometry"/>
                </mxCell>
                <mxCell id="35" style="edgeStyle=orthogonalEdgeStyle;rounded=0;html=1;exitX=0.25;exitY=1;exitDx=0;exitDy=0;" edge="1" parent="1" source="6" target="13">
                    <mxGeometry relative="1" as="geometry"/>
                </mxCell>
                <mxCell id="6" value="print &quot;You are NOT &lt;br&gt;an acceptable age!&quot;" style="shape=parallelogram;html=1;strokeWidth=2;perimeter=parallelogramPerimeter;whiteSpace=wrap;rounded=1;arcSize=12;size=0.23;" vertex="1" parent="1">
                    <mxGeometry x="630" y="-2650" width="170" height="50" as="geometry"/>
                </mxCell>
                <mxCell id="36" style="edgeStyle=orthogonalEdgeStyle;rounded=0;html=1;exitX=0.5;exitY=1;exitDx=0;exitDy=0;entryX=0.5;entryY=0;entryDx=0;entryDy=0;entryPerimeter=0;" edge="1" parent="1" source="7" target="13">
                    <mxGeometry relative="1" as="geometry"/>
                </mxCell>
                <mxCell id="7" value="print &quot;You are an &lt;br&gt;acceptable age&quot;" style="shape=parallelogram;html=1;strokeWidth=2;perimeter=parallelogramPerimeter;whiteSpace=wrap;rounded=1;arcSize=12;size=0.23;" vertex="1" parent="1">
                    <mxGeometry x="340" y="-2650" width="148" height="50" as="geometry"/>
                </mxCell>
                <mxCell id="34" style="edgeStyle=orthogonalEdgeStyle;rounded=0;html=1;exitX=0.5;exitY=1;exitDx=0;exitDy=0;entryX=0.5;entryY=0;entryDx=0;entryDy=0;entryPerimeter=0;" edge="1" parent="1" source="8" target="13">
                    <mxGeometry relative="1" as="geometry"/>
                </mxCell>
                <mxCell id="8" value="A, is not valid input" style="shape=parallelogram;html=1;strokeWidth=2;perimeter=parallelogramPerimeter;whiteSpace=wrap;rounded=1;arcSize=12;size=0.23;" vertex="1" parent="1">
                    <mxGeometry x="60" y="-2650" width="148" height="50" as="geometry"/>
                </mxCell>
                <mxCell id="13" value="Stop" style="strokeWidth=2;html=1;shape=mxgraph.flowchart.start_1;whiteSpace=wrap;" vertex="1" parent="1">
                    <mxGeometry x="364" y="-2480" width="100" height="60" as="geometry"/>
                </mxCell>
                <mxCell id="27" style="edgeStyle=orthogonalEdgeStyle;rounded=0;html=1;exitX=0;exitY=0.5;exitDx=0;exitDy=0;exitPerimeter=0;" edge="1" parent="1" source="20" target="8">
                    <mxGeometry relative="1" as="geometry"/>
                </mxCell>
                <mxCell id="31" style="edgeStyle=orthogonalEdgeStyle;rounded=0;html=1;exitX=0.5;exitY=1;exitDx=0;exitDy=0;exitPerimeter=0;" edge="1" parent="1" source="20" target="30">
                    <mxGeometry relative="1" as="geometry"/>
                </mxCell>
                <mxCell id="20" value="try" style="strokeWidth=2;html=1;shape=mxgraph.flowchart.decision;whiteSpace=wrap;" vertex="1" parent="1">
                    <mxGeometry x="364" y="-3250" width="100" height="100" as="geometry"/>
                </mxCell>
                <mxCell id="29" value="exception" style="text;html=1;align=center;verticalAlign=middle;resizable=0;points=[];autosize=1;strokeColor=none;fillColor=none;" vertex="1" parent="1">
                    <mxGeometry x="125" y="-3190" width="70" height="20" as="geometry"/>
                </mxCell>
                <mxCell id="32" style="edgeStyle=orthogonalEdgeStyle;rounded=0;html=1;exitX=0.5;exitY=1;exitDx=0;exitDy=0;entryX=0.5;entryY=0;entryDx=0;entryDy=0;entryPerimeter=0;" edge="1" parent="1" source="30" target="5">
                    <mxGeometry relative="1" as="geometry"/>
                </mxCell>
                <mxCell id="30" value="convert string to int" style="rounded=1;whiteSpace=wrap;html=1;absoluteArcSize=1;arcSize=14;strokeWidth=2;" vertex="1" parent="1">
                    <mxGeometry x="334" y="-3080" width="160" height="80" as="geometry"/>
                </mxCell>
                <mxCell id="33" value="Yes" style="text;html=1;align=center;verticalAlign=middle;resizable=0;points=[];autosize=1;strokeColor=none;fillColor=none;" vertex="1" parent="1">
                    <mxGeometry x="340" y="-3130" width="40" height="20" as="geometry"/>
                </mxCell>
                <mxCell id="37" value="Yes" style="text;html=1;align=center;verticalAlign=middle;resizable=0;points=[];autosize=1;strokeColor=none;fillColor=none;" vertex="1" parent="1">
                    <mxGeometry x="330" y="-2710" width="40" height="20" as="geometry"/>
                </mxCell>
                <mxCell id="38" value="No" style="text;html=1;align=center;verticalAlign=middle;resizable=0;points=[];autosize=1;strokeColor=none;fillColor=none;" vertex="1" parent="1">
                    <mxGeometry x="635" y="-2710" width="30" height="20" as="geometry"/>
                </mxCell>
            </root>
        </mxGraphModel>
    </diagram>
</mxfile>